<?xml version="1.0" encoding="UTF-8"?>
<svg xmlns="http://www.w3.org/2000/svg" width="1400" height="1000" viewBox="0 0 1400 1000" font-family="Noto Serif SC, LXGW WenKai, Songti SC, serif">
  <defs>
    <marker id="arr-ink" viewBox="0 0 10 10" refX="8.5" refY="5" markerWidth="7" markerHeight="7" orient="auto-start-reverse"><path d="M0,0 L10,5 L0,10 z" fill="#334155"/></marker>
    <marker id="arr-dna" viewBox="0 0 10 10" refX="8.5" refY="5" markerWidth="7" markerHeight="7" orient="auto-start-reverse"><path d="M0,0 L10,5 L0,10 z" fill="#0f766e"/></marker>
    <marker id="arr-rna" viewBox="0 0 10 10" refX="8.5" refY="5" markerWidth="7" markerHeight="7" orient="auto-start-reverse"><path d="M0,0 L10,5 L0,10 z" fill="#b45309"/></marker>
    <marker id="arr-pro" viewBox="0 0 10 10" refX="8.5" refY="5" markerWidth="7" markerHeight="7" orient="auto-start-reverse"><path d="M0,0 L10,5 L0,10 z" fill="#6d28d9"/></marker>
    <marker id="arr-enz" viewBox="0 0 10 10" refX="8.5" refY="5" markerWidth="7" markerHeight="7" orient="auto-start-reverse"><path d="M0,0 L10,5 L0,10 z" fill="#be185d"/></marker>
    <marker id="arr-acc" viewBox="0 0 10 10" refX="8.5" refY="5" markerWidth="7" markerHeight="7" orient="auto-start-reverse"><path d="M0,0 L10,5 L0,10 z" fill="#0369a1"/></marker>
    <marker id="arr-ok" viewBox="0 0 10 10" refX="8.5" refY="5" markerWidth="7" markerHeight="7" orient="auto-start-reverse"><path d="M0,0 L10,5 L0,10 z" fill="#059669"/></marker>
    <marker id="arr-warn" viewBox="0 0 10 10" refX="8.5" refY="5" markerWidth="7" markerHeight="7" orient="auto-start-reverse"><path d="M0,0 L10,5 L0,10 z" fill="#b45309"/></marker>
    <marker id="arr-bad" viewBox="0 0 10 10" refX="8.5" refY="5" markerWidth="7" markerHeight="7" orient="auto-start-reverse"><path d="M0,0 L10,5 L0,10 z" fill="#dc2626"/></marker>
    <marker id="arr-mute" viewBox="0 0 10 10" refX="8.5" refY="5" markerWidth="7" markerHeight="7" orient="auto-start-reverse"><path d="M0,0 L10,5 L0,10 z" fill="#94a3b8"/></marker>
  </defs>
  <rect x="0" y="0" width="1400" height="1000" fill="#ffffff"/>
  <text x="700" y="38" text-anchor="middle" font-size="33" font-weight="700" fill="#1e293b">肾小管与集合管的重吸收：分段地图</text>
  <text x="700" y="74" text-anchor="middle" font-size="17" fill="#64748b">近端小管等渗回收Na<tspan dy="-5.8" font-size="12.2">+</tspan><tspan dy="5.8">与水各约65%（NHE3/SGLT2二级主动、Na</tspan><tspan dy="-5.8" font-size="12.2">+</tspan><tspan dy="5.8">-K</tspan><tspan dy="-5.8" font-size="12.2">+</tspan><tspan dy="5.8">泵统一驱动，肾糖阈约180mg/dl）；襻粗升支NKCC2抽盐不透水成「稀释段」（呋塞米靶点）；远曲</tspan></text>
  <text x="700" y="100" text-anchor="middle" font-size="17" fill="#64748b">NCC（噻嗪类）；集合管ENaC-醛固酮、AQP2-ADH与闰细胞H<tspan dy="-5.8" font-size="12.2">+</tspan><tspan dy="5.8">泵；球管平衡使65%份额恒定，葡萄糖滴定曲线呈阈值-splay-Tmax375mg/min三段式</tspan></text>
  <rect x="30" y="132" width="1340" height="430" rx="10" fill="#f8fafc" stroke="#cbd5e1" stroke-width="1.5"/>
  <text x="46" y="154.84" font-size="19" fill="#475569" font-weight="700">一、小管重吸收地图：一条流水线的四段接力</text>
  <text x="700" y="170" font-size="9" fill="#475569" text-anchor="middle" font-weight="600">小管液流向（180 L/日 → 1.5 L）</text>
  <line x1="60" y1="178" x2="1330" y2="178" stroke="#475569" stroke-width="1.8" marker-end="url(#arr-ink)"/>
  <text x="60" y="190" font-size="9.5" fill="#475569" font-weight="600">水通透：</text>
  <text x="320" y="190" font-size="9.5" fill="#075985" text-anchor="middle" font-weight="600">高（等渗）</text>
  <text x="753" y="190" font-size="9.5" fill="#78350f" text-anchor="middle" font-weight="600">≈0（结构性缺水通道）</text>
  <text x="1011" y="190" font-size="9.5" fill="#4c1d95" text-anchor="middle" font-weight="600">零</text>
  <text x="1196" y="190" font-size="9.5" fill="#134e4a" text-anchor="middle" font-weight="600">依 ADH</text>
  <rect x="60" y="210" width="520" height="80" rx="6" fill="#e0f2fe" stroke="#0369a1" stroke-width="2"/>
  <text x="320" y="240" font-size="12.5" fill="#075985" text-anchor="middle" font-weight="700">近端小管</text>
  <text x="320" y="264" font-size="10" fill="#475569" text-anchor="middle">Na<tspan dy="-3.4" font-size="7.2">+</tspan><tspan dy="3.4">·水 各约 65%（等渗重吸收）</tspan></text>
  <rect x="588" y="210" width="330" height="80" rx="6" fill="#fef3c7" stroke="#b45309" stroke-width="2"/>
  <text x="753" y="240" font-size="12.5" fill="#78350f" text-anchor="middle" font-weight="700">亨利襻粗升支「稀释段」</text>
  <text x="753" y="264" font-size="10" fill="#475569" text-anchor="middle">Na<tspan dy="-3.4" font-size="7.2">+</tspan><tspan dy="3.4"> 约 25%（抽盐不透水）</tspan></text>
  <rect x="926" y="210" width="170" height="80" rx="6" fill="#ede9fe" stroke="#6d28d9" stroke-width="2"/>
  <text x="1011" y="240" font-size="12.5" fill="#4c1d95" text-anchor="middle" font-weight="700">远曲小管</text>
  <text x="1011" y="264" font-size="10" fill="#475569" text-anchor="middle">Na<tspan dy="-3.4" font-size="7.2">+</tspan><tspan dy="3.4"> ~5%</tspan></text>
  <rect x="1106" y="210" width="180" height="80" rx="6" fill="#ccfbf1" stroke="#0f766e" stroke-width="2"/>
  <text x="1196" y="240" font-size="12.5" fill="#134e4a" text-anchor="middle" font-weight="700">集合管</text>
  <text x="1196" y="264" font-size="10" fill="#475569" text-anchor="middle">Na<tspan dy="-3.4" font-size="7.2">+</tspan><tspan dy="3.4"> 3–4%（受激素调控）</tspan></text>
  <rect x="1296" y="210" width="44" height="80" rx="6" fill="#fee2e2" stroke="#dc2626" stroke-width="2"/>
  <text x="1318" y="240" font-size="10.5" fill="#991b1b" text-anchor="middle" font-weight="700">终尿</text>
  <text x="1318" y="262" font-size="9.5" fill="#991b1b" text-anchor="middle">~1%</text>
  <rect x="117.3132" y="311.925" width="125.37360000000001" height="16.15" rx="7" fill="#e0f2fe" stroke="#0369a1" stroke-width="1.5"/>
  <text x="180" y="323.42" font-size="9.5" fill="#075985" text-anchor="middle">NHE3（Na<tspan dy="-3.2" font-size="6.8">+</tspan><tspan dy="3.2">-H</tspan><tspan dy="-3.2" font-size="6.8">+</tspan><tspan dy="3.2"> 交换）</tspan></text>
  <rect x="314.53" y="311.925" width="150.94" height="16.15" rx="7" fill="#e0f2fe" stroke="#0369a1" stroke-width="1.5"/>
  <text x="390" y="323.42" font-size="9.5" fill="#075985" text-anchor="middle">SGLT2/SGLT1（二级主动）</text>
  <rect x="125.3432" y="347.925" width="149.3136" height="16.15" rx="7" fill="#e0f2fe" stroke="#0369a1" stroke-width="1.5"/>
  <text x="200" y="359.42" font-size="9.5" fill="#075985" text-anchor="middle">Na<tspan dy="-3.2" font-size="6.8">+</tspan><tspan dy="3.2">-K</tspan><tspan dy="-3.2" font-size="6.8">+</tspan><tspan dy="3.2"> 泵（基侧统一驱动）</tspan></text>
  <rect x="397.45" y="347.925" width="125.1" height="16.15" rx="7" fill="#e0f2fe" stroke="#0369a1" stroke-width="1.5"/>
  <text x="460" y="359.42" font-size="9.5" fill="#075985" text-anchor="middle">AQP1（水·被动跟随）</text>
  <rect x="121.75" y="383.925" width="136.5" height="16.15" rx="7" fill="#fef3c7" stroke="#d97706" stroke-width="1.5"/>
  <text x="190" y="395.42" font-size="9.5" fill="#92400e" text-anchor="middle">乙酰唑胺（抑碳酸酐酶）</text>
  <rect x="345.005" y="383.925" width="149.99" height="16.15" rx="7" fill="#fef3c7" stroke="#d97706" stroke-width="1.5"/>
  <text x="420" y="395.42" font-size="9.5" fill="#92400e" text-anchor="middle">SGLT2 抑制剂（降糖新药）</text>
  <text x="60" y="424" font-size="9" fill="#475569">等渗性重吸收：Na<tspan dy="-3.1" font-size="6.5">+</tspan><tspan dy="3.1"> 与水同比例（管液始终与血浆等渗）；葡萄糖全部回收于此——肾糖阈约 180 mg/dl、Tmax 375 mg/min</tspan></text>
  <text x="60" y="437" font-size="9" fill="#475569">（见左下图）；氨基酸·乳酸·枸橼酸各有钠偶联转运体；有机酸碱经 OAT 家族分泌入管腔（PAH·青霉素·利尿剂本身）。</text>
  <text x="60" y="470" font-size="9" fill="#475569">球管平衡：GFR↑ → 近端重吸收同比例↑（份额恒 ~65%）——小管周 Starling 力（胶渗↑·静水压↓）＋转运体饱和动力学自洽，</text>
  <text x="60" y="483" font-size="9" fill="#475569">使小管不因 GFR 小幅波动而「溢出」。</text>
  <rect x="640.775" y="311.925" width="118.45" height="16.15" rx="7" fill="#fef3c7" stroke="#b45309" stroke-width="1.5"/>
  <text x="700" y="323.42" font-size="9.5" fill="#78350f" text-anchor="middle">NKCC2（同向转运）</text>
  <rect x="796.9766" y="311.925" width="106.0468" height="16.15" rx="7" fill="#fef3c7" stroke="#b45309" stroke-width="1.5"/>
  <text x="850" y="323.42" font-size="9.5" fill="#78350f" text-anchor="middle">ROMK（K<tspan dy="-3.2" font-size="6.8">+</tspan><tspan dy="3.2"> 回漏）</tspan></text>
  <text x="588" y="352" font-size="9" fill="#475569">管腔正电位（~+8 mV）顺带驱动 Ca<tspan dy="-3.1" font-size="6.5">2+</tspan><tspan dy="3.1">·Mg</tspan><tspan dy="-3.1" font-size="6.5">2+</tspan><tspan dy="3.1"> 细胞旁回收</tspan></text>
  <rect x="663.755" y="383.925" width="178.48999999999998" height="16.15" rx="7" fill="#fef3c7" stroke="#d97706" stroke-width="1.5"/>
  <text x="753" y="395.42" font-size="9.5" fill="#92400e" text-anchor="middle">呋塞米等袢利尿剂（阻断 NKCC2）</text>
  <text x="588" y="424" font-size="9" fill="#475569">对水几乎不通透（ADH 也不能改）——盐被单向抽出、</text>
  <text x="588" y="437" font-size="9" fill="#475569">管液稀释至约 100 mOsm/kg；失钠同时失钙失镁（机制即 K<tspan dy="-3.1" font-size="6.5">+</tspan><tspan dy="3.1"> 回漏点位）；</tspan></text>
  <text x="588" y="450" font-size="9" fill="#475569">Bartter 综合征＝「先天性呋塞米」；降支细段 AQP1 被动吸水（水约 15%）；</text>
  <text x="588" y="463" font-size="9" fill="#475569">高钙血症借袢利尿剂促钙排泄（须先补足容量）。</text>
  <rect x="960.7582" y="311.925" width="100.4836" height="16.15" rx="7" fill="#ede9fe" stroke="#6d28d9" stroke-width="1.5"/>
  <text x="1011" y="323.42" font-size="9.5" fill="#4c1d95" text-anchor="middle">NCC（Na<tspan dy="-3.2" font-size="6.8">+</tspan><tspan dy="3.2">-Cl</tspan><tspan dy="-3.2" font-size="6.8">-</tspan><tspan dy="3.2">）</tspan></text>
  <rect x="966.5" y="347.925" width="89" height="16.15" rx="7" fill="#fef3c7" stroke="#d97706" stroke-width="1.5"/>
  <text x="1011" y="359.42" font-size="9.5" fill="#92400e" text-anchor="middle">噻嗪类利尿剂</text>
  <text x="926" y="388" font-size="9" fill="#475569">延续「稀释段」血脉（仍不透水）；</text>
  <text x="926" y="401" font-size="9" fill="#475569">噻嗪类排钠同时减少尿钙，</text>
  <text x="926" y="414" font-size="9" fill="#475569">被借用于预防复发性含钙结石。</text>
  <rect x="1098.945" y="311.925" width="102.11" height="16.15" rx="7" fill="#ccfbf1" stroke="#0f766e" stroke-width="1.5"/>
  <text x="1150" y="323.42" font-size="9.5" fill="#134e4a" text-anchor="middle">ENaC（主细胞）</text>
  <rect x="1232.865" y="311.925" width="114.27000000000001" height="16.15" rx="7" fill="#ccfbf1" stroke="#0f766e" stroke-width="1.5"/>
  <text x="1290" y="323.42" font-size="9.5" fill="#134e4a" text-anchor="middle">AQP2（ADH 开关）</text>
  <rect x="1105.9316" y="347.925" width="108.1368" height="16.15" rx="7" fill="#fce7f3" stroke="#be185d" stroke-width="1.5"/>
  <text x="1160" y="359.42" font-size="9.5" fill="#831843" text-anchor="middle">闰细胞 H<tspan dy="-3.2" font-size="6.8">+</tspan><tspan dy="3.2">-ATP 酶</tspan></text>
  <rect x="1255.4582" y="347.925" width="89.08359999999999" height="16.15" rx="7" fill="#fce7f3" stroke="#be185d" stroke-width="1.5"/>
  <text x="1300" y="359.42" font-size="9.5" fill="#831843" text-anchor="middle">H<tspan dy="-3.2" font-size="6.8">+</tspan><tspan dy="3.2">/K</tspan><tspan dy="-3.2" font-size="6.8">+</tspan><tspan dy="3.2">-ATP 酶</tspan></text>
  <rect x="1083.175" y="383.925" width="133.65" height="16.15" rx="7" fill="#fef3c7" stroke="#d97706" stroke-width="1.5"/>
  <text x="1150" y="395.42" font-size="9.5" fill="#92400e" text-anchor="middle">阿米洛利（阻断 ENaC）</text>
  <rect x="1226.5" y="383.925" width="127" height="16.15" rx="7" fill="#fef3c7" stroke="#d97706" stroke-width="1.5"/>
  <text x="1290" y="395.42" font-size="9.5" fill="#92400e" text-anchor="middle">螺内酯（醛固酮受体）</text>
  <text x="1106" y="424" font-size="9" fill="#475569">主细胞：</text>
  <text x="1106" y="437" font-size="9" fill="#475569">醛固酮上调 ENaC＋基侧 Na<tspan dy="-3.1" font-size="6.5">+</tspan><tspan dy="3.1">-K</tspan><tspan dy="-3.1" font-size="6.5">+</tspan><tspan dy="3.1"> 泵——保 Na</tspan><tspan dy="-3.1" font-size="6.5">+</tspan><tspan dy="3.1"> 与泌 K</tspan><tspan dy="-3.1" font-size="6.5">+</tspan><tspan dy="3.1"> 捆绑；</tspan></text>
  <text x="1106" y="450" font-size="9" fill="#475569">AQP2 受 ADH-V<tspan dy="2.0" font-size="6.5">2</tspan><tspan dy="-2.0">-cAMP-PKA 磷酸化插入顶膜（开闸/内吞）；</tspan></text>
  <text x="1106" y="463" font-size="9" fill="#475569">A 型闰细胞泵 H<tspan dy="-3.1" font-size="6.5">+</tspan><tspan dy="3.1"> 入管腔（尿 pH 极限 4.4–4.5）；</tspan></text>
  <text x="1106" y="476" font-size="9" fill="#475569">集合管是全肾总闸门。</text>
  <text x="1106" y="500" font-size="9" fill="#475569">滤过的 K<tspan dy="-3.1" font-size="6.5">+</tspan><tspan dy="3.1"> 90% 以上在近端与襻升支重吸收（近乎定量、</tspan></text>
  <text x="1106" y="513" font-size="9" fill="#475569">少调节余地）——真正被精细调节的是远端净分泌；</text>
  <text x="1106" y="526" font-size="9" fill="#475569">腹泻与呕吐最终都落在「远端泌钾增多」同一出口。</text>
  <rect x="30" y="575" width="660" height="405" rx="10" fill="#f8fafc" stroke="#cbd5e1" stroke-width="1.5"/>
  <text x="46" y="597.84" font-size="19" fill="#475569" font-weight="700">二、葡萄糖滴定曲线：阈值、扇形与 Tmax</text>
  <text x="66" y="615" font-size="9" fill="#475569" font-weight="600">速率 (mg/min)</text>
  <rect x="70" y="625" width="480" height="185" fill="#ffffff" stroke="#475569" stroke-width="1.8"/>
  <line x1="70" y1="810" x2="70" y2="816" stroke="#475569" stroke-width="1.8"/>
  <text x="70" y="832" font-size="13" fill="#64748b" text-anchor="middle">0</text>
  <line x1="214" y1="810" x2="214" y2="816" stroke="#475569" stroke-width="1.8"/>
  <text x="214" y="832" font-size="13" fill="#64748b" text-anchor="middle">180</text>
  <line x1="310" y1="810" x2="310" y2="816" stroke="#475569" stroke-width="1.8"/>
  <text x="310" y="832" font-size="13" fill="#64748b" text-anchor="middle">300</text>
  <line x1="550" y1="810" x2="550" y2="816" stroke="#475569" stroke-width="1.8"/>
  <text x="550" y="832" font-size="13" fill="#64748b" text-anchor="middle">600</text>
  <line x1="64" y1="810" x2="70" y2="810" stroke="#475569" stroke-width="1.8"/>
  <text x="60" y="814" font-size="13" fill="#64748b" text-anchor="end">0</text>
  <line x1="64" y1="763.75" x2="70" y2="763.75" stroke="#475569" stroke-width="1.8"/>
  <text x="60" y="767.75" font-size="13" fill="#64748b" text-anchor="end">200</text>
  <line x1="64" y1="717.5" x2="70" y2="717.5" stroke="#475569" stroke-width="1.8"/>
  <text x="60" y="721.5" font-size="13" fill="#64748b" text-anchor="end">400</text>
  <line x1="64" y1="671.25" x2="70" y2="671.25" stroke="#475569" stroke-width="1.8"/>
  <text x="60" y="675.25" font-size="13" fill="#64748b" text-anchor="end">600</text>
  <line x1="64" y1="625" x2="70" y2="625" stroke="#475569" stroke-width="1.8"/>
  <text x="60" y="629" font-size="13" fill="#64748b" text-anchor="end">800</text>
  <text x="310" y="854" font-size="15" fill="#475569" text-anchor="middle" font-weight="600">血糖 (mg/dl)</text>
  <line x1="214" y1="625" x2="214" y2="810" stroke="#d97706" stroke-width="1.4" stroke-dasharray="4 4"/>
  <text x="80" y="645" font-size="9.5" fill="#92400e" font-weight="700">肾糖阈 ~180 mg/dl</text>
  <path d="M70.0,810.0 L550.0,636.6" fill="none" stroke="#0369a1" stroke-width="2" stroke-dasharray="7 5"/>
  <path d="M70,810 C94.0,801.4 182.0,770.5 214,758.2 C246.0,745.9 246.0,741.8 262,736 C278.0,730.2 262.0,725.4 310,723.235 C358.0,721.1 510.0,723.2 550,723.235" fill="none" stroke="#0f766e" stroke-width="2.8"/>
  <path d="M190,810 C198.0,809.4 218.0,809.1 238,806.3 C258.0,803.5 282.0,801.4 310,793.35 C338.0,785.3 366.0,769.9 406,758.2 C446.0,746.5 526.0,728.9 550,723.05" fill="none" stroke="#dc2626" stroke-width="2.8"/>
  <circle cx="150" cy="781" r="4" fill="#0f766e"/>
  <text x="85" y="765" font-size="8.5" fill="#134e4a" font-weight="700">血糖 100：全部回收</text>
  <text x="455" y="648" font-size="9" fill="#075985" font-weight="700">滤过负荷＝血糖×GFR</text>
  <text x="360" y="700" font-size="9" fill="#134e4a" font-weight="700">重吸收（Tmax≈375 mg/min，女性约 300）</text>
  <text x="390" y="795" font-size="9" fill="#991b1b" font-weight="700">排泄（糖尿出现）</text>
  <text x="280" y="685" font-size="8.5" fill="#475569" text-anchor="middle">扇形（splay）：肾单位异质性＋管腔逐步饱和</text>
  <text x="46" y="875" font-size="9" fill="#475569">三段式：低于阈值重吸收与滤过重合；越过阈值先斜升（splay）；更高封顶于 Tmax 375 mg/min——血糖 100 mg/dl 时滤过负荷仅约 125 mg/min，</text>
  <text x="46" y="888" font-size="9" fill="#475569">远未及阈值。</text>
  <text x="46" y="905" font-size="9" fill="#475569">糖尿出现＝阈值被越过：糖尿病血糖飙升、GFR 增高（妊娠时 GFR↑ 使阈值「相对」降低）皆可致糖尿；肾性糖尿＝SGLT2 突变而血糖正常。</text>
  <text x="46" y="930" font-size="9" fill="#475569">近端也是分泌主场：OAT 家族从血液摄取有机酸碱、顶膜外排入管腔——PAH、青霉素与利尿剂本身的排泄皆循此路；</text>
  <text x="46" y="943" font-size="9" fill="#475569">丙磺舒竞争 OAT 可延长青霉素血药浓度。</text>
  <text x="46" y="955" font-size="9" fill="#475569">小管周 Starling 力助等渗回收：滤过使此处胶渗压升高、静水压低于一般毛细血管——组织液「回吸」为大量重吸收提供力学出口（球管平衡的解剖学基础）</text>
  <text x="46" y="968" font-size="9" fill="#475569">。</text>
  <rect x="710" y="575" width="660" height="405" rx="10" fill="#f8fafc" stroke="#cbd5e1" stroke-width="1.5"/>
  <text x="726" y="597.84" font-size="19" fill="#475569" font-weight="700">三、集合管两类细胞与钾的远端决定论</text>
  <text x="726" y="612" font-size="11" fill="#134e4a" font-weight="700">主细胞：保 Na<tspan dy="-3.7" font-size="7.9">+</tspan><tspan dy="3.7">·泌 K</tspan><tspan dy="-3.7" font-size="7.9">+</tspan><tspan dy="3.7">·水通道</tspan></text>
  <rect x="740" y="630" width="240" height="200" rx="8" fill="#ccfbf1" fill-opacity="0.25" stroke="#0f766e" stroke-width="2"/>
  <rect x="742" y="632" width="236" height="20" fill="#e0f2fe" stroke="#0369a1" stroke-width="1.5"/>
  <text x="860" y="645" font-size="8.5" fill="#075985" text-anchor="middle" font-weight="700">管腔</text>
  <rect x="742" y="806" width="236" height="20" fill="#fee2e2" stroke="#dc2626" stroke-width="1.5"/>
  <text x="860" y="819" font-size="8.5" fill="#991b1b" text-anchor="middle">管周血液（间质）</text>
  <rect x="746" y="653" width="36" height="11" fill="#e0f2fe" stroke="#0369a1" stroke-width="1.4"/>
  <text x="742" y="682" font-size="8" fill="#075985" font-weight="700">AQP2</text>
  <rect x="800" y="653" width="38" height="11" fill="#fef3c7" stroke="#d97706" stroke-width="1.4"/>
  <text x="800" y="682" font-size="8" fill="#92400e" font-weight="700">ENaC</text>
  <rect x="890" y="653" width="36" height="11" fill="#d1fae5" stroke="#059669" stroke-width="1.4"/>
  <text x="890" y="682" font-size="8" fill="#065f46" font-weight="700">ROMK</text>
  <line x1="764" y1="664" x2="764" y2="720" stroke="#0369a1" stroke-width="2" marker-end="url(#arr-ink)"/>
  <text x="740" y="690" font-size="8" fill="#075985">H<tspan dy="1.8" font-size="5.8">2</tspan><tspan dy="-1.8">O</tspan></text>
  <line x1="819" y1="664" x2="819" y2="720" stroke="#d97706" stroke-width="2" marker-end="url(#arr-ink)"/>
  <text x="824" y="700" font-size="8" fill="#92400e">Na<tspan dy="-2.7" font-size="5.8">+</tspan></text>
  <line x1="908" y1="720" x2="908" y2="664" stroke="#059669" stroke-width="2" marker-end="url(#arr-ink)"/>
  <text x="913" y="700" font-size="8" fill="#065f46">K<tspan dy="-2.7" font-size="5.8">+</tspan></text>
  <text x="860" y="750" font-size="10" fill="#134e4a" text-anchor="middle" font-weight="700">主细胞</text>
  <rect x="760" y="792" width="36" height="12" fill="#e0f2fe" stroke="#0369a1" stroke-width="1.4"/>
  <rect x="850" y="792" width="40" height="12" fill="#ccfbf1" stroke="#0f766e" stroke-width="1.4"/>
  <line x1="778" y1="786" x2="778" y2="834" stroke="#0369a1" stroke-width="2" marker-end="url(#arr-ink)"/>
  <line x1="870" y1="786" x2="870" y2="834" stroke="#0f766e" stroke-width="2" marker-end="url(#arr-ink)"/>
  <text x="726" y="846" font-size="8" fill="#075985">AQP3/4（常开）</text>
  <text x="845" y="846" font-size="8" fill="#134e4a">Na<tspan dy="-2.7" font-size="5.8">+</tspan><tspan dy="2.7">-K</tspan><tspan dy="-2.7" font-size="5.8">+</tspan><tspan dy="2.7">-ATP 酶</tspan></text>
  <text x="726" y="868" font-size="9" fill="#475569">醛固酮（基因组效应·小时级）：</text>
  <text x="726" y="881" font-size="9" fill="#475569">↑ENaC 表达与膜插入＋↑基侧 Na<tspan dy="-3.1" font-size="6.5">+</tspan><tspan dy="3.1">-K</tspan><tspan dy="-3.1" font-size="6.5">+</tspan><tspan dy="3.1"> 泵——保 Na</tspan><tspan dy="-3.1" font-size="6.5">+</tspan><tspan dy="3.1">（伴水）·排 K</tspan><tspan dy="-3.1" font-size="6.5">+</tspan><tspan dy="3.1">；</tspan></text>
  <text x="726" y="894" font-size="9" fill="#475569">ADH 经 V<tspan dy="2.0" font-size="6.5">2</tspan><tspan dy="-2.0">-cAMP-PKA 使 AQP2 磷酸化并插入顶膜（撤除则内吞），</tspan></text>
  <text x="726" y="907" font-size="9" fill="#475569">基侧 AQP3/4 常开保证水出胞。</text>
  <text x="726" y="921" font-size="9" fill="#475569">闰细胞：A 型 H<tspan dy="-3.1" font-size="6.5">+</tspan><tspan dy="3.1">-ATP 酶泵 H</tspan><tspan dy="-3.1" font-size="6.5">+</tspan><tspan dy="3.1"> 入管腔（尿 pH 极限 4.4–4.5）；</tspan></text>
  <text x="726" y="936" font-size="9" fill="#475569">H<tspan dy="-3.1" font-size="6.5">+</tspan><tspan dy="3.1">/K</tspan><tspan dy="-3.1" font-size="6.5">+</tspan><tspan dy="3.1">-ATP 酶在低钾时以 H</tspan><tspan dy="-3.1" font-size="6.5">+</tspan><tspan dy="3.1"> 换回 K</tspan><tspan dy="-3.1" font-size="6.5">+</tspan><tspan dy="3.1">；B 型反向分泌 HCO</tspan><tspan dy="2.0" font-size="6.5">3</tspan><tspan dy="-5.0" font-size="6.5">-</tspan></text>
  <text x="726" y="951" font-size="9" fill="#475569">（碱中毒时启用）。</text>
  <text x="726" y="960" font-size="9" fill="#64748b">保钾利尿剂双守门：阿米洛利阻断 ENaC、</text>
  <text x="726" y="974" font-size="9" fill="#64748b">螺内酯拮抗醛固酮受体——「失钾」与「保钾」药物一墙之隔。</text>
  <text x="1030" y="612" font-size="11" fill="#831843" font-weight="700">闰细胞：酸碱使命</text>
  <rect x="1066.7432" y="636.925" width="126.5136" height="16.15" rx="7" fill="#fce7f3" stroke="#be185d" stroke-width="1.5"/>
  <text x="1130" y="648.42" font-size="9.5" fill="#831843" text-anchor="middle">A 型：H<tspan dy="-3.2" font-size="6.8">+</tspan><tspan dy="3.2">-ATP 酶泵 H</tspan><tspan dy="-3.2" font-size="6.8">+</tspan></text>
  <text x="1202" y="649" font-size="8.5" fill="#475569">尿 pH 极限 4.4–4.5</text>
  <rect x="1085.4582" y="671.925" width="89.08359999999999" height="16.15" rx="7" fill="#fce7f3" stroke="#be185d" stroke-width="1.5"/>
  <text x="1130" y="683.42" font-size="9.5" fill="#831843" text-anchor="middle">H<tspan dy="-3.2" font-size="6.8">+</tspan><tspan dy="3.2">/K</tspan><tspan dy="-3.2" font-size="6.8">+</tspan><tspan dy="3.2">-ATP 酶</tspan></text>
  <text x="1185" y="684" font-size="8.5" fill="#475569">低钾时以 H<tspan dy="-2.9" font-size="6.1">+</tspan><tspan dy="2.9"> 换回 K</tspan><tspan dy="-2.9" font-size="6.1">+</tspan></text>
  <rect x="1076.2812" y="706.925" width="107.43759999999999" height="16.15" rx="7" fill="#e0f2fe" stroke="#0369a1" stroke-width="1.5"/>
  <text x="1130" y="718.42" font-size="9.5" fill="#075985" text-anchor="middle">B 型：分泌 HCO<tspan dy="2.1" font-size="6.8">3</tspan><tspan dy="-5.3" font-size="6.8">-</tspan></text>
  <text x="1190" y="719" font-size="8.5" fill="#475569">碱中毒时启用（反向）</text>
  <text x="1030" y="760" font-size="10.5" fill="#475569" font-weight="700">血钾（3.5–5.0 mmol/L）的远端决定论</text>
  <rect x="1058.51" y="783.925" width="172.98000000000002" height="16.15" rx="7" fill="#fef3c7" stroke="#b45309" stroke-width="1.5"/>
  <text x="1145" y="795.42" font-size="9.5" fill="#78350f" text-anchor="middle">① 醛固酮（高钾直接刺激球状带）</text>
  <rect x="1063.26" y="817.925" width="163.48000000000002" height="16.15" rx="7" fill="#fef3c7" stroke="#b45309" stroke-width="1.5"/>
  <text x="1145" y="829.42" font-size="9.5" fill="#78350f" text-anchor="middle">② 管流率（利尿剂致失钾之因）</text>
  <rect x="1066.49" y="851.925" width="157.02" height="16.15" rx="7" fill="#fef3c7" stroke="#b45309" stroke-width="1.5"/>
  <text x="1145" y="863.42" font-size="9.5" fill="#78350f" text-anchor="middle">③ 酸碱（碱中毒促·酸中毒抑）</text>
  <text x="1030" y="892" font-size="8.5" fill="#475569">远端净分泌可数倍于「重吸收后残余」——终尿 K<tspan dy="-2.9" font-size="6.1">+</tspan><tspan dy="2.9"> 可超过滤过量；</tspan></text>
  <text x="1030" y="904" font-size="8.5" fill="#475569">长期高钾饮食上调 ROMK/ENaC 表达（饮食钾适应，泌钾能力翻倍）。</text>
  <text x="1030" y="936" font-size="8.5" fill="#475569">临床失钾两条主路：腹泻（肠道丢钾）与呕吐（代碱＋容量收缩继发高醛固酮）</text>
  <text x="1030" y="948" font-size="8.5" fill="#475569">——最终都落在「远端泌钾增多」同一出口。</text>
</svg>