<?xml version="1.0" encoding="UTF-8"?>
<svg xmlns="http://www.w3.org/2000/svg" width="1400" height="1000" viewBox="0 0 1400 1000" font-family="Noto Serif SC, LXGW WenKai, Songti SC, serif">
  <defs>
    <marker id="arr-ink" viewBox="0 0 10 10" refX="8.5" refY="5" markerWidth="7" markerHeight="7" orient="auto-start-reverse"><path d="M0,0 L10,5 L0,10 z" fill="#334155"/></marker>
    <marker id="arr-dna" viewBox="0 0 10 10" refX="8.5" refY="5" markerWidth="7" markerHeight="7" orient="auto-start-reverse"><path d="M0,0 L10,5 L0,10 z" fill="#0f766e"/></marker>
    <marker id="arr-rna" viewBox="0 0 10 10" refX="8.5" refY="5" markerWidth="7" markerHeight="7" orient="auto-start-reverse"><path d="M0,0 L10,5 L0,10 z" fill="#b45309"/></marker>
    <marker id="arr-pro" viewBox="0 0 10 10" refX="8.5" refY="5" markerWidth="7" markerHeight="7" orient="auto-start-reverse"><path d="M0,0 L10,5 L0,10 z" fill="#6d28d9"/></marker>
    <marker id="arr-enz" viewBox="0 0 10 10" refX="8.5" refY="5" markerWidth="7" markerHeight="7" orient="auto-start-reverse"><path d="M0,0 L10,5 L0,10 z" fill="#be185d"/></marker>
    <marker id="arr-acc" viewBox="0 0 10 10" refX="8.5" refY="5" markerWidth="7" markerHeight="7" orient="auto-start-reverse"><path d="M0,0 L10,5 L0,10 z" fill="#0369a1"/></marker>
    <marker id="arr-ok" viewBox="0 0 10 10" refX="8.5" refY="5" markerWidth="7" markerHeight="7" orient="auto-start-reverse"><path d="M0,0 L10,5 L0,10 z" fill="#059669"/></marker>
    <marker id="arr-warn" viewBox="0 0 10 10" refX="8.5" refY="5" markerWidth="7" markerHeight="7" orient="auto-start-reverse"><path d="M0,0 L10,5 L0,10 z" fill="#b45309"/></marker>
    <marker id="arr-bad" viewBox="0 0 10 10" refX="8.5" refY="5" markerWidth="7" markerHeight="7" orient="auto-start-reverse"><path d="M0,0 L10,5 L0,10 z" fill="#dc2626"/></marker>
    <marker id="arr-mute" viewBox="0 0 10 10" refX="8.5" refY="5" markerWidth="7" markerHeight="7" orient="auto-start-reverse"><path d="M0,0 L10,5 L0,10 z" fill="#94a3b8"/></marker>
  </defs>
  <rect x="0" y="0" width="1400" height="1000" fill="#ffffff"/>
  <text x="700" y="56" text-anchor="middle" font-size="33" font-weight="700" fill="#1e293b">自主神经系统与睡眠架构</text>
  <text x="700" y="90" text-anchor="middle" font-size="17" fill="#64748b">交感节前短/节后长（NE→α/β，汗腺为ACh例外），副交感节前长/节后短（ACh→M）；睡眠以约90分钟周期经N1-N2-N3-REM循环，REM伴肌张力失弛缓与锯齿波</text>
  <rect x="30" y="132" width="660" height="440" rx="10" fill="#f8fafc" stroke="#cbd5e1" stroke-width="1.5"/>
  <text x="46" y="154.84" font-size="19" fill="#475569" font-weight="700">一、交感与副交感的解剖架构（双栏对照）</text>
  <rect x="129.8023" y="176.225" width="130.3954" height="19.55" rx="7" fill="#fee2e2" stroke="#dc2626" stroke-width="1.5"/>
  <text x="195" y="190.14" font-size="11.5" fill="#991b1b" text-anchor="middle" font-weight="700">交感：胸腰段 T1–L2</text>
  <rect x="401.9485" y="176.225" width="226.10299999999998" height="19.55" rx="7" fill="#e0f2fe" stroke="#0369a1" stroke-width="1.5"/>
  <text x="515" y="190.14" font-size="11.5" fill="#075985" text-anchor="middle" font-weight="700">副交感：颅骶段 III/VII/IX/X + S2–4</text>
  <rect x="105" y="214" width="180" height="40" rx="7" fill="#f1f5f9" stroke="#475569" stroke-width="1.8"/>
  <text x="195" y="238" font-size="10" fill="#475569" text-anchor="middle" font-weight="600">脊髓中间外侧柱（T1–L2）</text>
  <line x1="195" y1="254" x2="195" y2="278" stroke="#475569" stroke-width="1.8" marker-end="url(#arr-ink)"/>
  <text x="210" y="272" font-size="9.5" fill="#991b1b" font-weight="600">节前（短）· ACh → N</text>
  <line x1="195" y1="303" x2="195" y2="350" stroke="#d97706" stroke-width="1.6"/>
  <circle cx="195" cy="292" r="11" fill="#fef3c7" stroke="#d97706" stroke-width="1.8"/>
  <circle cx="195" cy="322" r="8" fill="#fef3c7" stroke="#d97706" stroke-width="1.6"/>
  <circle cx="195" cy="344" r="8" fill="#fef3c7" stroke="#d97706" stroke-width="1.6"/>
  <text x="212" y="296" font-size="9.5" fill="#92400e" font-weight="600">椎旁交感链 · 椎前节</text>
  <line x1="195" y1="356" x2="195" y2="380" stroke="#475569" stroke-width="1.8" marker-end="url(#arr-ink)"/>
  <text x="210" y="374" font-size="9.5" fill="#991b1b" font-weight="600">节后（长）· NE → α/β</text>
  <rect x="105" y="384" width="180" height="40" rx="7" fill="#f1f5f9" stroke="#475569" stroke-width="1.8"/>
  <text x="195" y="408" font-size="10" fill="#475569" text-anchor="middle" font-weight="600">效应器：心 · 支气管 · 血管 · 内脏</text>
  <text x="60" y="452" font-size="10" fill="#475569">汗腺例外：节后纤维释放 ACh 作用于 M 受体（发汗）；</text>
  <text x="60" y="467" font-size="10" fill="#475569">骨骼肌的交感胆碱能舒血管纤维同理</text>
  <text x="60" y="492" font-size="10" fill="#475569">肾上腺髓质 = 改良交感神经节：</text>
  <text x="60" y="507" font-size="10" fill="#475569">节前 ACh 直接支配嗜铬细胞，</text>
  <text x="60" y="522" font-size="10" fill="#475569">按约 8 : 2 分泌肾上腺素与 NE 入血</text>
  <text x="60" y="532" font-size="10" fill="#475569">发散度大：一个节前对多个节后 → 全身性动员</text>
  <text x="60" y="547" font-size="10" fill="#475569">（战斗或逃跑）</text>
  <rect x="390" y="214" width="250" height="40" rx="7" fill="#f1f5f9" stroke="#475569" stroke-width="1.8"/>
  <text x="515" y="238" font-size="10" fill="#475569" text-anchor="middle" font-weight="600">脑神经核 III·VII·IX·X + 骶髓 S2–4</text>
  <text x="390" y="264" font-size="9.5" fill="#64748b">X 迷走独挑大梁：胸腹腔脏器至横结肠左曲</text>
  <line x1="515" y1="280" x2="515" y2="304" stroke="#475569" stroke-width="1.8" marker-end="url(#arr-ink)"/>
  <text x="530" y="298" font-size="9.5" fill="#075985" font-weight="600">节前（长）· ACh → N</text>
  <circle cx="515" cy="318" r="10" fill="#d1fae5" stroke="#059669" stroke-width="1.8"/>
  <text x="530" y="322" font-size="9.5" fill="#065f46" font-weight="600">器官旁 / 壁内神经节</text>
  <line x1="515" y1="332" x2="515" y2="356" stroke="#475569" stroke-width="1.8" marker-end="url(#arr-ink)"/>
  <text x="530" y="350" font-size="9.5" fill="#075985" font-weight="600">节后（短）· ACh → M</text>
  <rect x="390" y="360" width="250" height="40" rx="7" fill="#f1f5f9" stroke="#475569" stroke-width="1.8"/>
  <text x="515" y="384" font-size="10" fill="#475569" text-anchor="middle" font-weight="600">效应器：瞳孔括约肌 · 腺体 · 胃肠 · 膀胱</text>
  <text x="390" y="428" font-size="10" fill="#475569">作用局限而精准：瞳孔缩小、心率减慢、消化推进、</text>
  <text x="390" y="443" font-size="10" fill="#475569">膀胱排空（休息与消化）</text>
  <text x="390" y="468" font-size="10" fill="#475569">分布较局限：皮肤血管、汗腺、肾上腺髓质等无副交感分布</text>
  <text x="390" y="508" font-size="10" fill="#475569">唾液腺双重支配互补：交感泌浓稠黏液、</text>
  <text x="390" y="523" font-size="10" fill="#475569">副交感泌大量稀薄浆液——互补而非对抗</text>
  <rect x="710" y="132" width="660" height="440" rx="10" fill="#f8fafc" stroke="#cbd5e1" stroke-width="1.5"/>
  <text x="726" y="154.84" font-size="19" fill="#475569" font-weight="700">二、效应器官的受体与代表效应</text>
  <text x="1040" y="188" font-size="17" fill="#1e293b" text-anchor="middle" font-weight="700">节前一律 ACh（N 受体）；节后递质与效应如下</text>
  <rect x="730" y="200" width="110" height="44" fill="#f1f5f9" stroke="#94a3b8" stroke-width="1.3"/>
  <text x="785" y="227.5" font-size="12" fill="#1e293b" text-anchor="middle" font-weight="700">效应器官</text>
  <rect x="840" y="200" width="285" height="44" fill="#f1f5f9" stroke="#94a3b8" stroke-width="1.3"/>
  <text x="982.5" y="227.5" font-size="12" fill="#1e293b" text-anchor="middle" font-weight="700">交感效应（主要受体）</text>
  <rect x="1125" y="200" width="225" height="44" fill="#f1f5f9" stroke="#94a3b8" stroke-width="1.3"/>
  <text x="1237.5" y="227.5" font-size="12" fill="#1e293b" text-anchor="middle" font-weight="700">副交感效应（M）</text>
  <rect x="730" y="244" width="110" height="40" fill="none" stroke="#94a3b8" stroke-width="1.3"/>
  <text x="785" y="269.5" font-size="11" fill="#1e293b" text-anchor="middle" font-weight="700">窦房结</text>
  <rect x="840" y="244" width="285" height="40" fill="none" stroke="#94a3b8" stroke-width="1.3"/>
  <text x="982.5" y="269.5" font-size="11" fill="#475569" text-anchor="middle" font-weight="500">心率加快（β<tspan dy="2.4" font-size="7.9">1</tspan><tspan dy="-2.4">）</tspan></text>
  <rect x="1125" y="244" width="225" height="40" fill="none" stroke="#94a3b8" stroke-width="1.3"/>
  <text x="1237.5" y="269.5" font-size="11" fill="#475569" text-anchor="middle" font-weight="500">心率减慢</text>
  <rect x="730" y="284" width="620" height="40" fill="#f8fafc" fill-opacity="0.85"/>
  <rect x="730" y="284" width="110" height="40" fill="none" stroke="#94a3b8" stroke-width="1.3"/>
  <text x="785" y="309.5" font-size="11" fill="#1e293b" text-anchor="middle" font-weight="700">心肌</text>
  <rect x="840" y="284" width="285" height="40" fill="none" stroke="#94a3b8" stroke-width="1.3"/>
  <text x="982.5" y="309.5" font-size="11" fill="#475569" text-anchor="middle" font-weight="500">收缩增强（β<tspan dy="2.4" font-size="7.9">1</tspan><tspan dy="-2.4">）</tspan></text>
  <rect x="1125" y="284" width="225" height="40" fill="none" stroke="#94a3b8" stroke-width="1.3"/>
  <text x="1237.5" y="309.5" font-size="11" fill="#475569" text-anchor="middle" font-weight="500">收缩略减弱</text>
  <rect x="730" y="324" width="110" height="40" fill="none" stroke="#94a3b8" stroke-width="1.3"/>
  <text x="785" y="349.5" font-size="11" fill="#1e293b" text-anchor="middle" font-weight="700">支气管</text>
  <rect x="840" y="324" width="285" height="40" fill="none" stroke="#94a3b8" stroke-width="1.3"/>
  <text x="982.5" y="349.5" font-size="11" fill="#475569" text-anchor="middle" font-weight="500">平滑肌舒张（β<tspan dy="2.4" font-size="7.9">2</tspan><tspan dy="-2.4">）</tspan></text>
  <rect x="1125" y="324" width="225" height="40" fill="none" stroke="#94a3b8" stroke-width="1.3"/>
  <text x="1237.5" y="349.5" font-size="11" fill="#475569" text-anchor="middle" font-weight="500">平滑肌收缩</text>
  <rect x="730" y="364" width="620" height="40" fill="#f8fafc" fill-opacity="0.85"/>
  <rect x="730" y="364" width="110" height="40" fill="none" stroke="#94a3b8" stroke-width="1.3"/>
  <text x="785" y="389.5" font-size="11" fill="#1e293b" text-anchor="middle" font-weight="700">瞳孔</text>
  <rect x="840" y="364" width="285" height="40" fill="none" stroke="#94a3b8" stroke-width="1.3"/>
  <text x="982.5" y="389.5" font-size="11" fill="#475569" text-anchor="middle" font-weight="500">散大（α<tspan dy="2.4" font-size="7.9">1</tspan><tspan dy="-2.4">·开大肌）</tspan></text>
  <rect x="1125" y="364" width="225" height="40" fill="none" stroke="#94a3b8" stroke-width="1.3"/>
  <text x="1237.5" y="389.5" font-size="11" fill="#475569" text-anchor="middle" font-weight="500">缩小（括约肌）</text>
  <rect x="730" y="404" width="110" height="40" fill="none" stroke="#94a3b8" stroke-width="1.3"/>
  <text x="785" y="429.5" font-size="11" fill="#1e293b" text-anchor="middle" font-weight="700">胃肠</text>
  <rect x="840" y="404" width="285" height="40" fill="none" stroke="#94a3b8" stroke-width="1.3"/>
  <text x="982.5" y="429.5" font-size="11" fill="#475569" text-anchor="middle" font-weight="500">运动减弱·括约肌收紧</text>
  <rect x="1125" y="404" width="225" height="40" fill="none" stroke="#94a3b8" stroke-width="1.3"/>
  <text x="1237.5" y="429.5" font-size="11" fill="#475569" text-anchor="middle" font-weight="500">运动增强·括约肌舒张</text>
  <rect x="730" y="444" width="620" height="40" fill="#f8fafc" fill-opacity="0.85"/>
  <rect x="730" y="444" width="110" height="40" fill="none" stroke="#94a3b8" stroke-width="1.3"/>
  <text x="785" y="469.5" font-size="11" fill="#1e293b" text-anchor="middle" font-weight="700">汗腺</text>
  <rect x="840" y="444" width="285" height="40" fill="none" stroke="#94a3b8" stroke-width="1.3"/>
  <text x="982.5" y="469.5" font-size="11" fill="#475569" text-anchor="middle" font-weight="500">发汗（胆碱能·M 受体）</text>
  <rect x="1125" y="444" width="225" height="40" fill="none" stroke="#94a3b8" stroke-width="1.3"/>
  <text x="1237.5" y="469.5" font-size="11" fill="#475569" text-anchor="middle" font-weight="500">无分布</text>
  <rect x="730" y="484" width="110" height="40" fill="none" stroke="#94a3b8" stroke-width="1.3"/>
  <text x="785" y="509.5" font-size="11" fill="#1e293b" text-anchor="middle" font-weight="700">骨骼肌血管</text>
  <rect x="840" y="484" width="285" height="40" fill="none" stroke="#94a3b8" stroke-width="1.3"/>
  <text x="982.5" y="509.5" font-size="11" fill="#475569" text-anchor="middle" font-weight="500">舒张（β<tspan dy="2.4" font-size="7.9">2</tspan><tspan dy="-2.4"> 与胆碱能）</tspan></text>
  <rect x="1125" y="484" width="225" height="40" fill="none" stroke="#94a3b8" stroke-width="1.3"/>
  <text x="1237.5" y="509.5" font-size="11" fill="#475569" text-anchor="middle" font-weight="500">无分布</text>
  <text x="730" y="548" font-size="10" fill="#475569">α<tspan dy="2.2" font-size="7.2">2</tspan><tspan dy="-2.2"> 为突触前自身受体（抑制 NE 释放）；β</tspan><tspan dy="2.2" font-size="7.2">3</tspan><tspan dy="-2.2"> 促脂肪分解——同一递质经不同受体亚型在不同器官产生相反效应</tspan></text>
  <rect x="30" y="592" width="1340" height="390" rx="10" fill="#f8fafc" stroke="#cbd5e1" stroke-width="1.5"/>
  <text x="46" y="614.84" font-size="19" fill="#475569" font-weight="700">三、睡眠架构：约 90 分钟周期的螺旋下降与回升</text>
  <text x="142" y="652" font-size="12.5" fill="#475569" text-anchor="end" font-weight="600">睡眠分期</text>
  <line x1="150" y1="680" x2="880" y2="680" stroke="#94a3b8" stroke-width="0.9" stroke-dasharray="3 5" opacity="0.5"/>
  <text x="142" y="684" font-size="11" fill="#475569" text-anchor="end" font-weight="600">清醒</text>
  <line x1="150" y1="716" x2="880" y2="716" stroke="#94a3b8" stroke-width="0.9" stroke-dasharray="3 5" opacity="0.5"/>
  <text x="142" y="720" font-size="11" fill="#475569" text-anchor="end" font-weight="600">REM</text>
  <line x1="150" y1="752" x2="880" y2="752" stroke="#94a3b8" stroke-width="0.9" stroke-dasharray="3 5" opacity="0.5"/>
  <text x="142" y="756" font-size="11" fill="#475569" text-anchor="end" font-weight="600">N1</text>
  <line x1="150" y1="788" x2="880" y2="788" stroke="#94a3b8" stroke-width="0.9" stroke-dasharray="3 5" opacity="0.5"/>
  <text x="142" y="792" font-size="11" fill="#475569" text-anchor="end" font-weight="600">N2</text>
  <line x1="150" y1="824" x2="880" y2="824" stroke="#94a3b8" stroke-width="0.9" stroke-dasharray="3 5" opacity="0.5"/>
  <text x="142" y="828" font-size="11" fill="#475569" text-anchor="end" font-weight="600">N3</text>
  <rect x="280" y="700" width="26" height="32" fill="#fce7f3" fill-opacity="0.5"/>
  <rect x="412" y="700" width="50" height="32" fill="#fce7f3" fill-opacity="0.5"/>
  <rect x="560" y="700" width="58" height="32" fill="#fce7f3" fill-opacity="0.5"/>
  <rect x="690" y="700" width="84" height="32" fill="#fce7f3" fill-opacity="0.5"/>
  <rect x="820" y="700" width="60" height="32" fill="#fce7f3" fill-opacity="0.5"/>
  <polyline points="150,680 165,680 165,752 185,752 185,788 215,788 215,824 260,824 260,788 280,788 280,716 306,716 306,752 322,752 322,788 360,788 360,824 395,824 395,788 412,788 412,716 462,716 462,752 475,752 475,788 520,788 520,824 545,824 545,788 560,788 560,716 618,716 618,680 628,680 628,752 640,752 640,788 690,788 690,716 774,716 774,752 788,752 788,788 820,788 820,716 880,716" fill="none" stroke="#0369a1" stroke-width="2.2"/>
  <text x="515" y="640" font-size="11" fill="#1e293b" text-anchor="middle" font-weight="600">每周期约 90 分钟（一夜 4–6 个周期）；后半夜 REM 递增、N3 递减</text>
  <line x1="150" y1="860" x2="890" y2="860" stroke="#475569" stroke-width="1.6" marker-end="url(#arr-ink)"/>
  <line x1="150" y1="860" x2="150" y2="866" stroke="#475569" stroke-width="1.4"/>
  <text x="150" y="882" font-size="10.5" fill="#64748b" text-anchor="middle">0</text>
  <line x1="254.3" y1="860" x2="254.3" y2="866" stroke="#475569" stroke-width="1.4"/>
  <text x="254.3" y="882" font-size="10.5" fill="#64748b" text-anchor="middle">1</text>
  <line x1="358.6" y1="860" x2="358.6" y2="866" stroke="#475569" stroke-width="1.4"/>
  <text x="358.6" y="882" font-size="10.5" fill="#64748b" text-anchor="middle">2</text>
  <line x1="462.9" y1="860" x2="462.9" y2="866" stroke="#475569" stroke-width="1.4"/>
  <text x="462.9" y="882" font-size="10.5" fill="#64748b" text-anchor="middle">3</text>
  <line x1="567.2" y1="860" x2="567.2" y2="866" stroke="#475569" stroke-width="1.4"/>
  <text x="567.2" y="882" font-size="10.5" fill="#64748b" text-anchor="middle">4</text>
  <line x1="671.5" y1="860" x2="671.5" y2="866" stroke="#475569" stroke-width="1.4"/>
  <text x="671.5" y="882" font-size="10.5" fill="#64748b" text-anchor="middle">5</text>
  <line x1="775.8" y1="860" x2="775.8" y2="866" stroke="#475569" stroke-width="1.4"/>
  <text x="775.8" y="882" font-size="10.5" fill="#64748b" text-anchor="middle">6</text>
  <line x1="880.1" y1="860" x2="880.1" y2="866" stroke="#475569" stroke-width="1.4"/>
  <text x="880.1" y="882" font-size="10.5" fill="#64748b" text-anchor="middle">7</text>
  <text x="515" y="906" font-size="12" fill="#475569" text-anchor="middle" font-weight="600">睡眠时程（小时）</text>
  <rect x="796.87185" y="663.925" width="82.2563" height="16.15" rx="7" fill="#fce7f3" stroke="#be185d" stroke-width="1.5"/>
  <text x="838" y="675.42" font-size="9.5" fill="#831843" text-anchor="middle" font-weight="600">REM 期（阴影）</text>
  <text x="1150" y="640" font-size="12.5" fill="#1e293b" text-anchor="middle" font-weight="700">各期脑电（EEG）特征</text>
  <text x="950" y="678" font-size="10.5" fill="#475569" font-weight="600">清醒闭眼：α 波 8–13 Hz（枕区显著·睁眼阻断）</text>
  <polyline points="1170,698 1173,688.2 1176,689.2 1179,700 1182,708.6 1185,705.4 1188,694 1191,687 1194,692.2 1197,703.8 1200,709 1203,702 1206,690.6 1209,687.4 1212,696 1215,706.8 1218,707.8 1221,698 1224,688.2 1227,689.2 1230,700 1233,708.6 1236,705.4 1239,694 1242,687 1245,692.2 1248,703.8 1251,709 1254,702 1257,690.6 1260,687.4 1263,696 1266,706.8 1269,707.8 1272,698 1275,688.2 1278,689.2 1281,700 1284,708.6 1287,705.4 1290,694 1293,687 1296,692.2 1299,703.8 1302,709 1305,702 1308,690.6 1311,687.4 1314,696 1317,706.8 1320,707.8 1323,698 1326,688.2 1329,689.2 1332,700 1335,708.6 1338,705.4" fill="none" stroke="#0369a1" stroke-width="1.8"/>
  <text x="950" y="728" font-size="10.5" fill="#475569" font-weight="600">N1：θ 波 4–8 Hz（浅睡易醒）</text>
  <polyline points="1170,748 1173,741.8 1176,738.3 1179,738.9 1182,743.4 1185,749.8 1188,755.5 1191,758 1194,756.2 1197,750.9 1200,744.4 1203,739.4 1206,738.1 1209,741 1212,746.9 1215,753.3 1218,757.4 1221,757.5 1224,753.6 1227,747.3 1230,741.3 1233,738.1 1236,739.2 1239,744 1242,750.6 1245,756 1248,758 1251,755.8 1254,750.2 1257,743.7 1260,739 1263,738.2 1266,741.5 1269,747.6 1272,753.9 1275,757.6 1278,757.3 1281,752.9 1284,746.5 1287,740.7 1290,738 1293,739.6 1296,744.7 1299,751.3 1302,756.4 1305,758 1308,755.3 1311,749.5 1314,743.1 1317,738.7 1320,738.4 1323,742.1 1326,748.4 1329,754.5 1332,757.8 1335,757 1338,752.3" fill="none" stroke="#0f766e" stroke-width="1.8"/>
  <text x="950" y="778" font-size="10.5" fill="#475569" font-weight="600">N2：纺锤波 12–14 Hz + K 复合波</text>
  <polyline points="1170,798 1173,793.8 1176,792 1179,793.8 1182,798 1185,802.2 1188,804 1191,802.2 1194,798 1197,800.2 1200,803.5 1203,806.8 1206,810.1 1209,813.4 1212,816.7 1215,820 1218,813.4 1221,806.8 1224,800.2 1227,793.6 1230,787 1233,802.2 1236,785 1239,807.2 1242,798 1245,788.8 1248,811 1251,788.8 1254,798 1257,807.2 1260,785 1263,807.2 1266,798 1269,788.8 1272,811 1275,788.8 1278,798 1281,807.2 1284,785 1287,802.2 1290,798 1293,793.8 1296,792 1299,793.8 1302,798 1305,802.2 1308,804 1311,802.2 1314,798 1317,793.8 1320,792 1323,793.8 1326,798 1329,802.2 1332,804 1335,802.2 1338,798" fill="none" stroke="#6d28d9" stroke-width="1.8"/>
  <text x="950" y="828" font-size="10.5" fill="#475569" font-weight="600">N3：δ 慢波 0.5–4 Hz（最深·GH 分泌峰值）</text>
  <polyline points="1170,848 1173,844.7 1176,841.6 1179,838.7 1182,836.4 1185,834.6 1188,833.4 1191,833 1194,833.3 1197,834.3 1200,836 1203,838.3 1206,841.1 1209,844.2 1212,847.4 1215,850.8 1218,853.9 1221,856.8 1224,859.3 1227,861.2 1230,862.4 1233,863 1236,862.8 1239,861.9 1242,860.3 1245,858.1 1248,855.4 1251,852.4 1254,849.1 1257,845.8 1260,842.6 1263,839.6 1266,837.1 1269,835.1 1272,833.7 1275,833.1 1278,833.1 1281,833.9 1284,835.4 1287,837.5 1290,840.1 1293,843.1 1296,846.3 1299,849.7 1302,852.9 1305,855.9 1308,858.5 1311,860.6 1314,862.1 1317,862.9 1320,862.9 1323,862.3 1326,860.9 1329,858.9 1332,856.4 1335,853.4 1338,850.2" fill="none" stroke="#dc2626" stroke-width="1.8"/>
  <text x="950" y="878" font-size="10.5" fill="#475569" font-weight="600">REM：去同步 + 锯齿波（近似清醒）</text>
  <polyline points="1170,898 1173,892.8 1176,891.5 1179,894.5 1182,898.3 1185,899 1188,895.5 1191,890.9 1194,889.5 1197,892.9 1200,898.4 1203,901.7 1206,900.5 1209,896.7 1212,894.7 1215,897.2 1218,902.5 1221,906.5 1224,905.8 1227,901.4 1230,897.2 1233,896.9 1236,900.3 1239,903.7 1242,898.6 1245,899.6 1248,900.6 1251,901.5 1254,902.5 1257,903.5 1260,904.4 1263,905.4 1266,906.4 1269,907 1272,907 1275,907 1278,907 1281,907 1284,907 1287,907 1290,907 1293,907 1296,907 1299,905.9 1302,904.8 1305,903.6 1308,902.5 1311,901.4 1314,900.3 1317,899.1 1320,898 1323,893.4 1326,890.4 1329,892.3 1332,896.6 1335,899 1338,897.1" fill="none" stroke="#be185d" stroke-width="1.8"/>
  <text x="60" y="946" font-size="10.5" fill="#475569">REM 失弛缓（atonia）：延髓下行通路主动抑制运动神经元、全身骨骼肌张力丧失——防止把梦境演成动作；梦境密集涌现于此期</text>
  <text x="60" y="968" font-size="10.5" fill="#475569">睡眠压力由腺苷随清醒时长累积（咖啡因拮抗腺苷受体）；觉醒维持依赖下丘脑食欲素能系统（缺失 → 发作性睡病）；上行网状激活系统（ARAS）为意识水平「总电源」</text>
</svg>