<?xml version="1.0" encoding="UTF-8"?>
<svg xmlns="http://www.w3.org/2000/svg" width="1400" height="1000" viewBox="0 0 1400 1000" font-family="Noto Serif SC, LXGW WenKai, Songti SC, serif">
  <defs>
    <marker id="arr-ink" viewBox="0 0 10 10" refX="8.5" refY="5" markerWidth="7" markerHeight="7" orient="auto-start-reverse"><path d="M0,0 L10,5 L0,10 z" fill="#334155"/></marker>
    <marker id="arr-dna" viewBox="0 0 10 10" refX="8.5" refY="5" markerWidth="7" markerHeight="7" orient="auto-start-reverse"><path d="M0,0 L10,5 L0,10 z" fill="#0f766e"/></marker>
    <marker id="arr-rna" viewBox="0 0 10 10" refX="8.5" refY="5" markerWidth="7" markerHeight="7" orient="auto-start-reverse"><path d="M0,0 L10,5 L0,10 z" fill="#b45309"/></marker>
    <marker id="arr-pro" viewBox="0 0 10 10" refX="8.5" refY="5" markerWidth="7" markerHeight="7" orient="auto-start-reverse"><path d="M0,0 L10,5 L0,10 z" fill="#6d28d9"/></marker>
    <marker id="arr-enz" viewBox="0 0 10 10" refX="8.5" refY="5" markerWidth="7" markerHeight="7" orient="auto-start-reverse"><path d="M0,0 L10,5 L0,10 z" fill="#be185d"/></marker>
    <marker id="arr-acc" viewBox="0 0 10 10" refX="8.5" refY="5" markerWidth="7" markerHeight="7" orient="auto-start-reverse"><path d="M0,0 L10,5 L0,10 z" fill="#0369a1"/></marker>
    <marker id="arr-ok" viewBox="0 0 10 10" refX="8.5" refY="5" markerWidth="7" markerHeight="7" orient="auto-start-reverse"><path d="M0,0 L10,5 L0,10 z" fill="#059669"/></marker>
    <marker id="arr-warn" viewBox="0 0 10 10" refX="8.5" refY="5" markerWidth="7" markerHeight="7" orient="auto-start-reverse"><path d="M0,0 L10,5 L0,10 z" fill="#b45309"/></marker>
    <marker id="arr-bad" viewBox="0 0 10 10" refX="8.5" refY="5" markerWidth="7" markerHeight="7" orient="auto-start-reverse"><path d="M0,0 L10,5 L0,10 z" fill="#dc2626"/></marker>
    <marker id="arr-mute" viewBox="0 0 10 10" refX="8.5" refY="5" markerWidth="7" markerHeight="7" orient="auto-start-reverse"><path d="M0,0 L10,5 L0,10 z" fill="#94a3b8"/></marker>
  </defs>
  <rect x="0" y="0" width="1400" height="1000" fill="#ffffff"/>
  <text x="700" y="56" text-anchor="middle" font-size="33" font-weight="700" fill="#1e293b">实验室诊断：两条主线、Ct 判读与中和定量</text>
  <text x="700" y="90" text-anchor="middle" font-size="19" fill="#64748b">核酸与抗原窗口早于血清学一至两周；Ct 每 3.3 个循环约一个数量级、跨平台不可比；PRNT50 与双份血清四倍升高；mNGS 为培养阴性后的第二线</text>
  <rect x="30" y="132" width="660" height="430" rx="10" fill="#f8fafc" stroke="#cbd5e1" stroke-width="1.5"/>
  <text x="46" y="154.84" font-size="19" fill="#475569" font-weight="700">一、感染时间轴：两条主线的检出窗口</text>
  <rect x="66" y="191.8" width="11" height="8.4" rx="3" fill="#0369a1" stroke="#cbd5e1" stroke-width="1"/>
  <text x="85" y="199.6" font-size="10" fill="#475569">病毒 RNA（核酸）</text>
  <rect x="188.8" y="191.8" width="11" height="8.4" rx="3" fill="#d97706" stroke="#cbd5e1" stroke-width="1"/>
  <text x="207.8" y="199.6" font-size="10" fill="#475569">抗原</text>
  <rect x="249.8" y="191.8" width="11" height="8.4" rx="3" fill="#b45309" stroke="#cbd5e1" stroke-width="1"/>
  <text x="268.8" y="199.6" font-size="10" fill="#475569">IgM</text>
  <rect x="308.40000000000003" y="191.8" width="11" height="8.4" rx="3" fill="#0f766e" stroke="#cbd5e1" stroke-width="1"/>
  <text x="327.40000000000003" y="199.6" font-size="10" fill="#475569">IgG</text>
  <rect x="70" y="230" width="560" height="210" fill="#ffffff" stroke="#475569" stroke-width="1.8"/>
  <line x1="70" y1="387.5" x2="630" y2="387.5" stroke="#94a3b8" stroke-width="0.9" stroke-dasharray="4 5" opacity="0.55"/>
  <line x1="210" y1="440" x2="210" y2="230" stroke="#94a3b8" stroke-width="0.9" stroke-dasharray="4 5" opacity="0.55"/>
  <line x1="70" y1="335" x2="630" y2="335" stroke="#94a3b8" stroke-width="0.9" stroke-dasharray="4 5" opacity="0.55"/>
  <line x1="350" y1="440" x2="350" y2="230" stroke="#94a3b8" stroke-width="0.9" stroke-dasharray="4 5" opacity="0.55"/>
  <line x1="70" y1="282.5" x2="630" y2="282.5" stroke="#94a3b8" stroke-width="0.9" stroke-dasharray="4 5" opacity="0.55"/>
  <line x1="490" y1="440" x2="490" y2="230" stroke="#94a3b8" stroke-width="0.9" stroke-dasharray="4 5" opacity="0.55"/>
  <line x1="70" y1="440" x2="70" y2="446" stroke="#475569" stroke-width="1.8"/>
  <text x="70" y="462" font-size="13" fill="#64748b" text-anchor="middle">0</text>
  <line x1="210" y1="440" x2="210" y2="446" stroke="#475569" stroke-width="1.8"/>
  <text x="210" y="462" font-size="13" fill="#64748b" text-anchor="middle">1</text>
  <line x1="350" y1="440" x2="350" y2="446" stroke="#475569" stroke-width="1.8"/>
  <text x="350" y="462" font-size="13" fill="#64748b" text-anchor="middle">2</text>
  <line x1="490" y1="440" x2="490" y2="446" stroke="#475569" stroke-width="1.8"/>
  <text x="490" y="462" font-size="13" fill="#64748b" text-anchor="middle">4</text>
  <line x1="630" y1="440" x2="630" y2="446" stroke="#475569" stroke-width="1.8"/>
  <text x="630" y="462" font-size="13" fill="#64748b" text-anchor="middle">8（周）</text>
  <line x1="64" y1="440" x2="70" y2="440" stroke="#475569" stroke-width="1.8"/>
  <text x="60" y="444" font-size="13" fill="#64748b" text-anchor="end">低</text>
  <line x1="64" y1="230" x2="70" y2="230" stroke="#475569" stroke-width="1.8"/>
  <text x="60" y="234" font-size="13" fill="#64748b" text-anchor="end">高</text>
  <path d="M70,419 C77.5,394.5 98.0,301.8 114.80000000000001,272 C131.6,242.3 145.6,230.0 170.8,240.5 C196.0,251.0 231.5,307.0 266,335 C300.5,363.0 340.7,392.1 378,408.5 C415.3,424.9 448.0,428.8 490,433.7 C532.0,438.6 606.7,437.2 630,437.9" fill="none" stroke="#0369a1" stroke-width="2.6"/>
  <path d="M98,429.5 C107.3,413.8 135.3,358.4 154,335 C172.7,311.6 186.7,283.6 210,288.8 C233.3,294.1 266.0,344.8 294,366.5 C322.0,388.2 350.0,407.4 378,419 C406.0,430.6 420.0,432.7 462,435.8 C504.0,438.9 602.0,437.5 630,437.9" fill="none" stroke="#d97706" stroke-width="2.6"/>
  <path d="M154,435.8 C168.0,426.0 210.0,400.8 238,377 C266.0,353.2 294.0,312.3 322,293 C350.0,273.8 378.0,254.5 406,261.5 C434.0,268.5 462.0,314.0 490,335 C518.0,356.0 550.7,375.3 574,387.5 C597.3,399.8 620.7,405.0 630,408.5" fill="none" stroke="#b45309" stroke-width="2.6"/>
  <path d="M210,435.8 C224.0,431.3 266.0,423.6 294,408.5 C322.0,393.4 350.0,364.8 378,345.5 C406.0,326.3 434.0,305.3 462,293 C490.0,280.8 518.0,277.3 546,272 C574.0,266.8 616.0,263.3 630,261.5" fill="none" stroke="#0f766e" stroke-width="2.6"/>
  <text x="46" y="480" font-size="10.5" fill="#475569">纵轴为相对检出水平。检出病毒成分（核酸、抗原、活病毒）与检出宿主应答（抗体）</text>
  <text x="46" y="495" font-size="10.5" fill="#475569">是两条主线——核酸与抗原的检出窗口早于血清学一至两周。</text>
  <text x="46" y="522" font-size="10.5" fill="#64748b">急性期与恢复期双份血清的四倍升高，在 IgG 曲线上即两次采样之间的显著抬升。</text>
  <rect x="710" y="132" width="660" height="430" rx="10" fill="#f8fafc" stroke="#cbd5e1" stroke-width="1.5"/>
  <text x="726" y="154.84" font-size="19" fill="#475569" font-weight="700">二、细胞培养分离：以 CPE 为指纹</text>
  <rect x="746" y="216" width="190" height="150" rx="10" fill="#ffffff" stroke="#475569" stroke-width="2.2"/>
  <rect x="796" y="194" width="90" height="24" rx="5" fill="#ffffff" stroke="#475569" stroke-width="2.2"/>
  <ellipse cx="758" cy="346" rx="6" ry="8" fill="#f8fafc" stroke="#059669" stroke-width="2"/>
  <ellipse cx="772" cy="346" rx="6" ry="8" fill="#f8fafc" stroke="#059669" stroke-width="2"/>
  <ellipse cx="786" cy="346" rx="6" ry="8" fill="#f8fafc" stroke="#059669" stroke-width="2"/>
  <ellipse cx="898" cy="346" rx="6" ry="8" fill="#f8fafc" stroke="#059669" stroke-width="2"/>
  <ellipse cx="912" cy="346" rx="6" ry="8" fill="#f8fafc" stroke="#059669" stroke-width="2"/>
  <circle cx="842" cy="342" r="16" fill="#fee2e2" stroke="#dc2626" stroke-width="1.8"/>
  <text x="842" y="386" font-size="10.5" fill="#475569" text-anchor="middle" font-weight="700">培养瓶：CPE 空斑区</text>
  <rect x="928" y="206" width="144" height="88" rx="8" fill="#f1f5f9" stroke="#cbd5e1" stroke-width="1.3"/>
  <circle cx="1000" cy="240" r="15" fill="#fee2e2" stroke="#dc2626" stroke-width="1.8"/>
  <text x="1000" y="280" font-size="10.5" fill="#1e293b" text-anchor="middle" font-weight="700">圆缩</text>
  <text x="1000" y="294" font-size="9" fill="#64748b" text-anchor="middle">快速致病变</text>
  <rect x="1093" y="206" width="144" height="88" rx="8" fill="#f1f5f9" stroke="#cbd5e1" stroke-width="1.3"/>
  <circle cx="1153" cy="234" r="11" fill="#fee2e2" stroke="#dc2626" stroke-width="1.6"/>
  <circle cx="1175" cy="232" r="11" fill="#fee2e2" stroke="#dc2626" stroke-width="1.6"/>
  <circle cx="1165" cy="248" r="11" fill="#fee2e2" stroke="#dc2626" stroke-width="1.6"/>
  <text x="1165" y="280" font-size="10.5" fill="#1e293b" text-anchor="middle" font-weight="700">葡萄串团聚</text>
  <text x="1165" y="294" font-size="9" fill="#64748b" text-anchor="middle">成簇脱落</text>
  <rect x="928" y="314" width="144" height="88" rx="8" fill="#f1f5f9" stroke="#cbd5e1" stroke-width="1.3"/>
  <ellipse cx="1000" cy="348" rx="44" ry="18" fill="#f8fafc" stroke="#dc2626" stroke-width="2"/>
  <circle cx="980" cy="344" r="4" fill="#1e293b"/>
  <circle cx="994" cy="346" r="4" fill="#1e293b"/>
  <circle cx="1008" cy="344" r="4" fill="#1e293b"/>
  <circle cx="1020" cy="346" r="4" fill="#1e293b"/>
  <text x="1000" y="388" font-size="10.5" fill="#1e293b" text-anchor="middle" font-weight="700">合胞体</text>
  <text x="1000" y="402" font-size="9" fill="#64748b" text-anchor="middle">融合病变</text>
  <rect x="1093" y="314" width="144" height="88" rx="8" fill="#f1f5f9" stroke="#cbd5e1" stroke-width="1.3"/>
  <ellipse cx="1165" cy="348" rx="26" ry="14" fill="#f8fafc" stroke="#d97706" stroke-width="2"/>
  <circle cx="1141" cy="360" r="4" fill="#fee2e2" stroke="#dc2626" stroke-width="1.2"/>
  <circle cx="1151" cy="336" r="4" fill="#fee2e2" stroke="#dc2626" stroke-width="1.2"/>
  <circle cx="1161" cy="360" r="4" fill="#fee2e2" stroke="#dc2626" stroke-width="1.2"/>
  <circle cx="1171" cy="336" r="4" fill="#fee2e2" stroke="#dc2626" stroke-width="1.2"/>
  <circle cx="1181" cy="360" r="4" fill="#fee2e2" stroke="#dc2626" stroke-width="1.2"/>
  <circle cx="1191" cy="336" r="4" fill="#fee2e2" stroke="#dc2626" stroke-width="1.2"/>
  <text x="1165" y="388" font-size="10.5" fill="#1e293b" text-anchor="middle" font-weight="700">血吸附</text>
  <text x="1165" y="402" font-size="9" fill="#64748b" text-anchor="middle">红细胞吸附</text>
  <text x="726" y="452" font-size="10.5" fill="#475569">离心小瓶培养把报告缩短至一至两日；诺如与丙肝病毒难以常规培养。1949 年 Enders、</text>
  <text x="726" y="467" font-size="10.5" fill="#475569">Weller 与 Robbins 以人胚组织培养增殖脊髓灰质炎病毒（1954 年诺贝尔奖），奠定诊断病毒学的培养体系。</text>
  <rect x="30" y="586" width="660" height="394" rx="10" fill="#f8fafc" stroke="#cbd5e1" stroke-width="1.5"/>
  <text x="46" y="608.84" font-size="19" fill="#475569" font-weight="700">三、分子与快检：Ct 值的判读与灵敏换时效</text>
  <text x="205" y="640" font-size="11" fill="#1e293b" text-anchor="middle" font-weight="700">Ct 值与病毒载量对数负相关</text>
  <rect x="70" y="670" width="270" height="170" fill="#ffffff" stroke="#475569" stroke-width="1.8"/>
  <line x1="70" y1="840" x2="70" y2="846" stroke="#475569" stroke-width="1.8"/>
  <text x="70" y="862" font-size="13" fill="#64748b" text-anchor="middle">15</text>
  <line x1="205" y1="840" x2="205" y2="846" stroke="#475569" stroke-width="1.8"/>
  <text x="205" y="862" font-size="13" fill="#64748b" text-anchor="middle">25</text>
  <line x1="340" y1="840" x2="340" y2="846" stroke="#475569" stroke-width="1.8"/>
  <text x="340" y="862" font-size="13" fill="#64748b" text-anchor="middle">35</text>
  <line x1="64" y1="840" x2="70" y2="840" stroke="#475569" stroke-width="1.8"/>
  <text x="60" y="844" font-size="13" fill="#64748b" text-anchor="end">低</text>
  <line x1="64" y1="670" x2="70" y2="670" stroke="#475569" stroke-width="1.8"/>
  <text x="60" y="674" font-size="13" fill="#64748b" text-anchor="end">高</text>
  <path d="M70,673.4 C81.3,680.2 115.0,700.6 137.5,714.2 C160.0,727.8 182.5,741.4 205,755 C227.5,768.6 250.0,782.2 272.5,795.8 C295.0,809.4 328.8,829.8 340,836.6" fill="none" stroke="#0369a1" stroke-width="2.6"/>
  <text x="205" y="874" font-size="10.5" fill="#475569" text-anchor="middle">Ct 值</text>
  <text x="515" y="640" font-size="11" fill="#1e293b" text-anchor="middle" font-weight="700">抗原快检：检出率随载量上升</text>
  <rect x="390" y="670" width="250" height="170" fill="#ffffff" stroke="#475569" stroke-width="1.8"/>
  <line x1="390" y1="840" x2="390" y2="846" stroke="#475569" stroke-width="1.8"/>
  <text x="390" y="862" font-size="13" fill="#64748b" text-anchor="middle">低</text>
  <line x1="640" y1="840" x2="640" y2="846" stroke="#475569" stroke-width="1.8"/>
  <text x="640" y="862" font-size="13" fill="#64748b" text-anchor="middle">病毒载量 高</text>
  <line x1="384" y1="840" x2="390" y2="840" stroke="#475569" stroke-width="1.8"/>
  <text x="380" y="844" font-size="13" fill="#64748b" text-anchor="end">0</text>
  <line x1="384" y1="670" x2="390" y2="670" stroke="#475569" stroke-width="1.8"/>
  <text x="380" y="674" font-size="13" fill="#64748b" text-anchor="end">检出率</text>
  <path d="M390,836.6 C398.3,835.8 425.4,836.6 440,831.5 C454.6,826.4 465.0,818.8 477.5,806 C490.0,793.3 502.5,772.0 515,755 C527.5,738.0 540.0,716.8 552.5,704 C565.0,691.3 575.4,683.6 590,678.5 C604.6,673.4 631.7,674.3 640,673.4" fill="none" stroke="#d97706" stroke-width="2.6"/>
  <text x="50" y="900" font-size="10.5" fill="#475569">qPCR 的 Ct 值每 3.3 个循环约差一个数量级——但跨平台不可比，也不等于传染性。</text>
  <text x="50" y="936" font-size="10.5" fill="#64748b">抗原快检以灵敏度换时效：适用高载量筛查与连续检测（隔日重复可弥补低载量漏检）。</text>
  <rect x="710" y="586" width="660" height="394" rx="10" fill="#f8fafc" stroke="#cbd5e1" stroke-width="1.5"/>
  <text x="726" y="608.84" font-size="19" fill="#475569" font-weight="700">四、中和试验、血凝抑制与 mNGS</text>
  <text x="990" y="640" font-size="11" fill="#1e293b" text-anchor="middle" font-weight="700">中和试验：血清倍比稀释与定量病毒孵育后接种细胞</text>
  <circle cx="770" cy="716" r="32" fill="#e0f2fe" stroke="#0369a1" stroke-width="2"/>
  <circle cx="790" cy="716" r="3.6" fill="#ffffff" stroke="#dc2626" stroke-width="1.3"/>
  <circle cx="780" cy="733.3205080756887" r="3.6" fill="#ffffff" stroke="#dc2626" stroke-width="1.3"/>
  <circle cx="760" cy="733.3205080756887" r="3.6" fill="#ffffff" stroke="#dc2626" stroke-width="1.3"/>
  <circle cx="750" cy="716" r="3.6" fill="#ffffff" stroke="#dc2626" stroke-width="1.3"/>
  <circle cx="760" cy="698.6794919243113" r="3.6" fill="#ffffff" stroke="#dc2626" stroke-width="1.3"/>
  <circle cx="780" cy="698.6794919243113" r="3.6" fill="#ffffff" stroke="#dc2626" stroke-width="1.3"/>
  <text x="770" y="766" font-size="10.5" fill="#475569" text-anchor="middle" font-weight="700">1:4</text>
  <circle cx="880" cy="716" r="32" fill="#e0f2fe" stroke="#0369a1" stroke-width="2"/>
  <circle cx="890.8060461173628" cy="732.829419696158" r="3.6" fill="#ffffff" stroke="#dc2626" stroke-width="1.3"/>
  <circle cx="880.9436006040235" cy="735.9777280465044" r="3.6" fill="#ffffff" stroke="#dc2626" stroke-width="1.3"/>
  <circle cx="870.8283180708585" cy="733.7730203001813" r="3.6" fill="#ffffff" stroke="#dc2626" stroke-width="1.3"/>
  <circle cx="863.170580303842" cy="726.8060461173628" r="3.6" fill="#ffffff" stroke="#dc2626" stroke-width="1.3"/>
  <circle cx="860.0222719534956" cy="716.9436006040235" r="3.6" fill="#ffffff" stroke="#dc2626" stroke-width="1.3"/>
  <circle cx="862.2269796998187" cy="706.8283180708585" r="3.6" fill="#ffffff" stroke="#dc2626" stroke-width="1.3"/>
  <circle cx="869.1939538826372" cy="699.170580303842" r="3.6" fill="#ffffff" stroke="#dc2626" stroke-width="1.3"/>
  <circle cx="879.0563993959765" cy="696.0222719534956" r="3.6" fill="#ffffff" stroke="#dc2626" stroke-width="1.3"/>
  <circle cx="889.1716819291415" cy="698.2269796998187" r="3.6" fill="#ffffff" stroke="#dc2626" stroke-width="1.3"/>
  <circle cx="896.829419696158" cy="705.1939538826372" r="3.6" fill="#ffffff" stroke="#dc2626" stroke-width="1.3"/>
  <circle cx="899.9777280465044" cy="715.0563993959765" r="3.6" fill="#ffffff" stroke="#dc2626" stroke-width="1.3"/>
  <circle cx="897.7730203001813" cy="725.1716819291415" r="3.6" fill="#ffffff" stroke="#dc2626" stroke-width="1.3"/>
  <text x="880" y="766" font-size="10.5" fill="#475569" text-anchor="middle" font-weight="700">1:16</text>
  <circle cx="990" cy="716" r="32" fill="#e0f2fe" stroke="#0369a1" stroke-width="2"/>
  <circle cx="981.6770632690572" cy="734.1859485365136" r="3.6" fill="#ffffff" stroke="#dc2626" stroke-width="1.3"/>
  <circle cx="977.838982416454" cy="731.8779611831206" r="3.6" fill="#ffffff" stroke="#dc2626" stroke-width="1.3"/>
  <circle cx="974.610705765477" cy="728.773786555414" r="3.6" fill="#ffffff" stroke="#dc2626" stroke-width="1.3"/>
  <circle cx="972.1541125875153" cy="725.0290809311314" r="3.6" fill="#ffffff" stroke="#dc2626" stroke-width="1.3"/>
  <circle cx="970.5923867223519" cy="720.8316194868033" r="3.6" fill="#ffffff" stroke="#dc2626" stroke-width="1.3"/>
  <circle cx="970.0038396260653" cy="716.391880466321" r="3.6" fill="#ffffff" stroke="#dc2626" stroke-width="1.3"/>
  <circle cx="970.417983507622" cy="711.9324909229069" r="3.6" fill="#ffffff" stroke="#dc2626" stroke-width="1.3"/>
  <circle cx="971.8140514634864" cy="707.6770632690572" r="3.6" fill="#ffffff" stroke="#dc2626" stroke-width="1.3"/>
  <circle cx="974.1220388168794" cy="703.838982416454" r="3.6" fill="#ffffff" stroke="#dc2626" stroke-width="1.3"/>
  <circle cx="977.226213444586" cy="700.610705765477" r="3.6" fill="#ffffff" stroke="#dc2626" stroke-width="1.3"/>
  <circle cx="980.9709190688686" cy="698.1541125875153" r="3.6" fill="#ffffff" stroke="#dc2626" stroke-width="1.3"/>
  <circle cx="985.1683805131967" cy="696.5923867223519" r="3.6" fill="#ffffff" stroke="#dc2626" stroke-width="1.3"/>
  <circle cx="989.608119533679" cy="696.0038396260653" r="3.6" fill="#ffffff" stroke="#dc2626" stroke-width="1.3"/>
  <circle cx="994.0675090770931" cy="696.417983507622" r="3.6" fill="#ffffff" stroke="#dc2626" stroke-width="1.3"/>
  <circle cx="998.3229367309428" cy="697.8140514634864" r="3.6" fill="#ffffff" stroke="#dc2626" stroke-width="1.3"/>
  <circle cx="1002.161017583546" cy="700.1220388168794" r="3.6" fill="#ffffff" stroke="#dc2626" stroke-width="1.3"/>
  <circle cx="1005.389294234523" cy="703.226213444586" r="3.6" fill="#ffffff" stroke="#dc2626" stroke-width="1.3"/>
  <circle cx="1007.8458874124847" cy="706.9709190688686" r="3.6" fill="#ffffff" stroke="#dc2626" stroke-width="1.3"/>
  <circle cx="1009.4076132776481" cy="711.1683805131967" r="3.6" fill="#ffffff" stroke="#dc2626" stroke-width="1.3"/>
  <circle cx="1009.9961603739347" cy="715.608119533679" r="3.6" fill="#ffffff" stroke="#dc2626" stroke-width="1.3"/>
  <circle cx="1009.582016492378" cy="720.0675090770931" r="3.6" fill="#ffffff" stroke="#dc2626" stroke-width="1.3"/>
  <circle cx="1008.1859485365136" cy="724.3229367309428" r="3.6" fill="#ffffff" stroke="#dc2626" stroke-width="1.3"/>
  <circle cx="1005.8779611831206" cy="728.161017583546" r="3.6" fill="#ffffff" stroke="#dc2626" stroke-width="1.3"/>
  <circle cx="1002.773786555414" cy="731.389294234523" r="3.6" fill="#ffffff" stroke="#dc2626" stroke-width="1.3"/>
  <circle cx="999.0290809311314" cy="733.8458874124847" r="3.6" fill="#ffffff" stroke="#dc2626" stroke-width="1.3"/>
  <circle cx="994.8316194868033" cy="735.4076132776481" r="3.6" fill="#ffffff" stroke="#dc2626" stroke-width="1.3"/>
  <circle cx="990.391880466321" cy="735.9961603739347" r="3.6" fill="#ffffff" stroke="#dc2626" stroke-width="1.3"/>
  <circle cx="985.9324909229069" cy="735.582016492378" r="3.6" fill="#ffffff" stroke="#dc2626" stroke-width="1.3"/>
  <text x="990" y="766" font-size="10.5" fill="#475569" text-anchor="middle" font-weight="700">1:64</text>
  <circle cx="1100" cy="716" r="32" fill="#e0f2fe" stroke="#0369a1" stroke-width="2"/>
  <circle cx="1080.200150067991" cy="718.8224001611974" r="3.6" fill="#ffffff" stroke="#dc2626" stroke-width="1.3"/>
  <circle cx="1080.0460143044372" cy="714.644103668684" r="3.6" fill="#ffffff" stroke="#dc2626" stroke-width="1.3"/>
  <circle cx="1080.7639634656261" cy="710.5250663521616" r="3.6" fill="#ffffff" stroke="#dc2626" stroke-width="1.3"/>
  <circle cx="1082.3226197281115" cy="706.6453099076963" r="3.6" fill="#ffffff" stroke="#dc2626" stroke-width="1.3"/>
  <circle cx="1084.6538623339602" cy="703.174398309048" r="3.6" fill="#ffffff" stroke="#dc2626" stroke-width="1.3"/>
  <circle cx="1087.6558047947533" cy="700.2640270483594" r="3.6" fill="#ffffff" stroke="#dc2626" stroke-width="1.3"/>
  <circle cx="1091.1972478200364" cy="698.0413933152333" r="3.6" fill="#ffffff" stroke="#dc2626" stroke-width="1.3"/>
  <circle cx="1095.1234133558753" cy="696.6036368691874" r="3.6" fill="#ffffff" stroke="#dc2626" stroke-width="1.3"/>
  <circle cx="1099.2627091285212" cy="696.0135945660348" r="3.6" fill="#ffffff" stroke="#dc2626" stroke-width="1.3"/>
  <circle cx="1103.434228050165" cy="696.2970540857602" r="3.6" fill="#ffffff" stroke="#dc2626" stroke-width="1.3"/>
  <circle cx="1107.4556547267623" cy="697.441626887162" r="3.6" fill="#ffffff" stroke="#dc2626" stroke-width="1.3"/>
  <circle cx="1111.1512335155992" cy="699.3972896465493" r="3.6" fill="#ffffff" stroke="#dc2626" stroke-width="1.3"/>
  <circle cx="1114.3594498902492" cy="702.0785705170258" r="3.6" fill="#ffffff" stroke="#dc2626" stroke-width="1.3"/>
  <circle cx="1116.94008940041" cy="705.3682846583386" r="3.6" fill="#ffffff" stroke="#dc2626" stroke-width="1.3"/>
  <circle cx="1118.780365716205" cy="709.1226557767122" r="3.6" fill="#ffffff" stroke="#dc2626" stroke-width="1.3"/>
  <circle cx="1119.799849932009" cy="713.1775998388026" r="3.6" fill="#ffffff" stroke="#dc2626" stroke-width="1.3"/>
  <circle cx="1119.9539856955628" cy="717.355896331316" r="3.6" fill="#ffffff" stroke="#dc2626" stroke-width="1.3"/>
  <circle cx="1119.2360365343739" cy="721.4749336478384" r="3.6" fill="#ffffff" stroke="#dc2626" stroke-width="1.3"/>
  <circle cx="1117.6773802718885" cy="725.3546900923037" r="3.6" fill="#ffffff" stroke="#dc2626" stroke-width="1.3"/>
  <circle cx="1115.3461376660398" cy="728.825601690952" r="3.6" fill="#ffffff" stroke="#dc2626" stroke-width="1.3"/>
  <circle cx="1112.3441952052467" cy="731.7359729516406" r="3.6" fill="#ffffff" stroke="#dc2626" stroke-width="1.3"/>
  <circle cx="1108.8027521799636" cy="733.9586066847667" r="3.6" fill="#ffffff" stroke="#dc2626" stroke-width="1.3"/>
  <circle cx="1104.8765866441247" cy="735.3963631308126" r="3.6" fill="#ffffff" stroke="#dc2626" stroke-width="1.3"/>
  <circle cx="1100.7372908714788" cy="735.9864054339653" r="3.6" fill="#ffffff" stroke="#dc2626" stroke-width="1.3"/>
  <circle cx="1096.565771949835" cy="735.7029459142398" r="3.6" fill="#ffffff" stroke="#dc2626" stroke-width="1.3"/>
  <circle cx="1092.5443452732377" cy="734.558373112838" r="3.6" fill="#ffffff" stroke="#dc2626" stroke-width="1.3"/>
  <circle cx="1088.8487664844008" cy="732.6027103534507" r="3.6" fill="#ffffff" stroke="#dc2626" stroke-width="1.3"/>
  <circle cx="1085.6405501097508" cy="729.9214294829742" r="3.6" fill="#ffffff" stroke="#dc2626" stroke-width="1.3"/>
  <circle cx="1083.05991059959" cy="726.6317153416614" r="3.6" fill="#ffffff" stroke="#dc2626" stroke-width="1.3"/>
  <circle cx="1081.219634283795" cy="722.8773442232878" r="3.6" fill="#ffffff" stroke="#dc2626" stroke-width="1.3"/>
  <text x="1100" y="766" font-size="10.5" fill="#475569" text-anchor="middle" font-weight="700">1:256</text>
  <circle cx="1210" cy="716" r="32" fill="#e0f2fe" stroke="#0369a1" stroke-width="2"/>
  <circle cx="1196.9271275827277" cy="700.8639500938415" r="3.6" fill="#ffffff" stroke="#dc2626" stroke-width="1.3"/>
  <circle cx="1200.3597629386375" cy="698.476706091584" r="3.6" fill="#ffffff" stroke="#dc2626" stroke-width="1.3"/>
  <circle cx="1204.2137229131183" cy="696.8553141192176" r="3.6" fill="#ffffff" stroke="#dc2626" stroke-width="1.3"/>
  <circle cx="1208.3205709619342" cy="696.0706367862367" r="3.6" fill="#ffffff" stroke="#dc2626" stroke-width="1.3"/>
  <circle cx="1212.500818118508" cy="696.1569682573921" r="3.6" fill="#ffffff" stroke="#dc2626" stroke-width="1.3"/>
  <circle cx="1216.5717675230462" cy="697.11053543313" r="3.6" fill="#ffffff" stroke="#dc2626" stroke-width="1.3"/>
  <circle cx="1220.3554991519882" cy="698.8896628521477" r="3.6" fill="#ffffff" stroke="#dc2626" stroke-width="1.3"/>
  <circle cx="1223.68664577679" cy="701.4165941090336" r="3.6" fill="#ffffff" stroke="#dc2626" stroke-width="1.3"/>
  <circle cx="1226.4196203053332" cy="704.5808901823001" r="3.6" fill="#ffffff" stroke="#dc2626" stroke-width="1.3"/>
  <circle cx="1228.4349786364535" cy="708.2442561495684" r="3.6" fill="#ffffff" stroke="#dc2626" stroke-width="1.3"/>
  <circle cx="1229.6446399403185" cy="712.2465853392886" r="3.6" fill="#ffffff" stroke="#dc2626" stroke-width="1.3"/>
  <circle cx="1229.9957362133507" cy="716.4129567605638" r="3.6" fill="#ffffff" stroke="#dc2626" stroke-width="1.3"/>
  <circle cx="1229.4729228636716" cy="720.561279989816" r="3.6" fill="#ffffff" stroke="#dc2626" stroke-width="1.3"/>
  <circle cx="1228.099049343399" cy="724.5102533960634" r="3.6" fill="#ffffff" stroke="#dc2626" stroke-width="1.3"/>
  <circle cx="1225.9341605179454" cy="728.0872878921763" r="3.6" fill="#ffffff" stroke="#dc2626" stroke-width="1.3"/>
  <circle cx="1223.0728724172723" cy="731.1360499061585" r="3.6" fill="#ffffff" stroke="#dc2626" stroke-width="1.3"/>
  <circle cx="1219.6402370613625" cy="733.523293908416" r="3.6" fill="#ffffff" stroke="#dc2626" stroke-width="1.3"/>
  <circle cx="1215.7862770868817" cy="735.1446858807824" r="3.6" fill="#ffffff" stroke="#dc2626" stroke-width="1.3"/>
  <circle cx="1211.6794290380658" cy="735.9293632137633" r="3.6" fill="#ffffff" stroke="#dc2626" stroke-width="1.3"/>
  <circle cx="1207.499181881492" cy="735.8430317426079" r="3.6" fill="#ffffff" stroke="#dc2626" stroke-width="1.3"/>
  <circle cx="1203.4282324769538" cy="734.88946456687" r="3.6" fill="#ffffff" stroke="#dc2626" stroke-width="1.3"/>
  <circle cx="1199.6445008480118" cy="733.1103371478523" r="3.6" fill="#ffffff" stroke="#dc2626" stroke-width="1.3"/>
  <circle cx="1196.31335422321" cy="730.5834058909664" r="3.6" fill="#ffffff" stroke="#dc2626" stroke-width="1.3"/>
  <circle cx="1193.5803796946668" cy="727.4191098176999" r="3.6" fill="#ffffff" stroke="#dc2626" stroke-width="1.3"/>
  <circle cx="1191.5650213635465" cy="723.7557438504316" r="3.6" fill="#ffffff" stroke="#dc2626" stroke-width="1.3"/>
  <circle cx="1190.3553600596815" cy="719.7534146607113" r="3.6" fill="#ffffff" stroke="#dc2626" stroke-width="1.3"/>
  <circle cx="1190.0042637866493" cy="715.5870432394362" r="3.6" fill="#ffffff" stroke="#dc2626" stroke-width="1.3"/>
  <circle cx="1190.5270771363284" cy="711.438720010184" r="3.6" fill="#ffffff" stroke="#dc2626" stroke-width="1.3"/>
  <circle cx="1191.900950656601" cy="707.4897466039366" r="3.6" fill="#ffffff" stroke="#dc2626" stroke-width="1.3"/>
  <circle cx="1194.0658394820546" cy="703.9127121078238" r="3.6" fill="#ffffff" stroke="#dc2626" stroke-width="1.3"/>
  <text x="1210" y="766" font-size="10.5" fill="#475569" text-anchor="middle" font-weight="700">1:1024</text>
  <rect x="1004.832" y="797.5" width="190.336" height="17" rx="7" fill="#fee2e2" stroke="#dc2626" stroke-width="1.5"/>
  <text x="1100" y="809.6" font-size="10" fill="#dc2626" text-anchor="middle" font-weight="700">PRNT50：抑制 50% 蚀斑的最低稀释度</text>
  <line x1="1070" y1="786" x2="1070" y2="752" stroke="#dc2626" stroke-width="1.8" marker-end="url(#arr-bad)"/>
  <text x="1300" y="660" font-size="9.5" fill="#64748b" text-anchor="middle">蚀斑数随稀释递增</text>
  <text x="726" y="852" font-size="10.5" fill="#475569">急性期与恢复期双份血清四倍升高是近期感染的回顾诊断金标准；IgM 提示近期感染但可交叉反应与迁延，</text>
  <text x="726" y="867" font-size="10.5" fill="#475569">IgG 亲和力试验区分原发与再感染；血凝抑制试验专用于流感。</text>
  <text x="726" y="902" font-size="10.5" fill="#64748b">mNGS 以不预设病原的广谱覆盖服务培养阴性的疑难感染与新病原发现——常规检查阴性后的第二线手段。</text>
</svg>